<?xml version="1.0" encoding="utf-8"?>
<!-- Generator: Adobe Illustrator 15.1.0, SVG Export Plug-In . SVG Version: 6.00 Build 0)  -->
<!DOCTYPE svg PUBLIC "-//W3C//DTD SVG 1.1//EN" "http://www.w3.org/Graphics/SVG/1.1/DTD/svg11.dtd">
<svg version="1.1" id="レイヤー_1" xmlns="http://www.w3.org/2000/svg" xmlns:xlink="http://www.w3.org/1999/xlink" x="0px"
	 y="0px" width="174px" height="40px" viewBox="0 0 174 40" enable-background="new 0 0 174 40" xml:space="preserve">
<text transform="matrix(1 0 0 1 11.667 -25.8213)"><tspan x="0" y="0" fill="#2B3137" font-family="'Arial-BoldMT'" font-size="31.8021">Mag</tspan><tspan x="63.604" y="0" fill="#2B3137" font-family="'Arial-BoldMT'" font-size="31.8021">a</tspan><tspan x="81.927" y="0" fill="#2B3137" font-family="'Arial-BoldMT'" font-size="31.8021">zine</tspan></text>
<rect fill="#2A2A2A" width="174" height="40"/>
<g>
	<path fill="#FFFFFF" d="M15,29.873V6.5h7.063l4.241,15.941L30.497,6.5h7.078v23.373h-4.384V11.474l-4.64,18.399h-4.543
		l-4.624-18.399v18.399H15z"/>
	<path fill="#FFFFFF" d="M45.578,18.105l-4.064-0.732c0.457-1.637,1.243-2.848,2.359-3.635c1.116-0.786,2.774-1.18,4.974-1.18
		c1.998,0,3.486,0.237,4.464,0.71s1.667,1.074,2.065,1.802c0.398,0.728,0.597,2.063,0.597,4.008l-0.047,5.23
		c0,1.488,0.072,2.586,0.215,3.291c0.144,0.707,0.412,1.465,0.806,2.273h-4.432c-0.117-0.299-0.261-0.74-0.431-1.324
		c-0.075-0.266-0.128-0.441-0.159-0.527c-0.766,0.744-1.584,1.303-2.456,1.676c-0.872,0.371-1.802,0.557-2.79,0.557
		c-1.744,0-3.118-0.473-4.122-1.418c-1.005-0.945-1.506-2.141-1.506-3.588c0-0.955,0.228-1.809,0.685-2.559
		c0.457-0.75,1.097-1.322,1.921-1.723c0.824-0.398,2.011-0.746,3.563-1.043c2.093-0.395,3.544-0.76,4.353-1.1v-0.447
		c0-0.861-0.212-1.473-0.637-1.841c-0.426-0.366-1.228-0.55-2.408-0.55c-0.797,0-1.419,0.157-1.865,0.471
		C46.216,16.77,45.855,17.32,45.578,18.105z M51.573,21.742c-0.574,0.189-1.483,0.418-2.726,0.684
		c-1.244,0.268-2.057,0.527-2.439,0.781c-0.584,0.416-0.876,0.941-0.876,1.578c0,0.629,0.233,1.17,0.701,1.627
		c0.467,0.457,1.063,0.686,1.786,0.686c0.807,0,1.578-0.264,2.312-0.797c0.542-0.404,0.898-0.896,1.068-1.482
		c0.117-0.383,0.176-1.111,0.176-2.184V21.742z"/>
	<path fill="#FFFFFF" d="M59.975,30.988l5.118,0.621c0.085,0.596,0.281,1.006,0.59,1.227c0.425,0.318,1.095,0.48,2.009,0.48
		c1.169,0,2.045-0.178,2.631-0.527c0.393-0.232,0.691-0.611,0.893-1.131c0.138-0.373,0.207-1.059,0.207-2.059v-2.471
		c-1.339,1.83-3.029,2.744-5.069,2.744c-2.274,0-4.076-0.963-5.405-2.887c-1.042-1.52-1.563-3.412-1.563-5.676
		c0-2.838,0.683-5.006,2.049-6.504c1.365-1.498,3.063-2.248,5.094-2.248c2.093,0,3.82,0.92,5.181,2.759v-2.376h4.193v15.194
		c0,1.998-0.165,3.49-0.494,4.48c-0.33,0.986-0.792,1.764-1.387,2.328c-0.595,0.563-1.39,1.004-2.383,1.322
		c-0.994,0.318-2.25,0.477-3.771,0.477c-2.87,0-4.906-0.49-6.106-1.473c-1.201-0.984-1.802-2.23-1.802-3.74
		C59.959,31.381,59.965,31.201,59.975,30.988z M63.977,21.057c0,1.795,0.349,3.111,1.045,3.945s1.554,1.252,2.574,1.252
		c1.095,0,2.02-0.428,2.774-1.283c0.754-0.855,1.132-2.123,1.132-3.805c0-1.752-0.362-3.055-1.084-3.904
		c-0.723-0.85-1.637-1.275-2.742-1.275c-1.073,0-1.958,0.418-2.654,1.252S63.977,19.344,63.977,21.057z"/>
	<path fill="#FFFFFF" d="M83.682,18.105l-4.065-0.732c0.457-1.637,1.244-2.848,2.36-3.635c1.116-0.786,2.774-1.18,4.974-1.18
		c1.997,0,3.486,0.237,4.463,0.71c0.978,0.473,1.667,1.074,2.065,1.802c0.398,0.728,0.597,2.063,0.597,4.008l-0.048,5.23
		c0,1.488,0.072,2.586,0.215,3.291c0.143,0.707,0.412,1.465,0.805,2.273h-4.433c-0.117-0.299-0.26-0.74-0.43-1.324
		c-0.075-0.266-0.128-0.441-0.16-0.527c-0.766,0.744-1.584,1.303-2.455,1.676c-0.872,0.371-1.802,0.557-2.79,0.557
		c-1.743,0-3.117-0.473-4.121-1.418c-1.005-0.945-1.506-2.141-1.506-3.588c0-0.955,0.228-1.809,0.685-2.559s1.098-1.322,1.921-1.723
		c0.824-0.398,2.011-0.746,3.563-1.043c2.093-0.395,3.544-0.76,4.353-1.1v-0.447c0-0.861-0.212-1.473-0.638-1.841
		c-0.425-0.366-1.228-0.55-2.407-0.55c-0.797,0-1.419,0.157-1.865,0.471C84.32,16.77,83.958,17.32,83.682,18.105z M89.677,21.742
		c-0.574,0.189-1.483,0.418-2.726,0.684c-1.244,0.268-2.057,0.527-2.439,0.781c-0.585,0.416-0.877,0.941-0.877,1.578
		c0,0.629,0.233,1.17,0.701,1.627s1.063,0.686,1.786,0.686c0.808,0,1.578-0.264,2.312-0.797c0.543-0.404,0.899-0.896,1.068-1.482
		c0.117-0.383,0.176-1.111,0.176-2.184V21.742z"/>
	<path fill="#FFFFFF" d="M97.345,29.873v-3.492l6.346-7.285c1.042-1.191,1.812-2.037,2.312-2.535
		c-0.521,0.032-1.207,0.053-2.057,0.063l-5.978,0.033v-3.715h13.998v3.172l-6.473,7.461l-2.28,2.471
		c1.244-0.074,2.014-0.109,2.312-0.109h6.935v3.938H97.345z"/>
	<path fill="#FFFFFF" d="M115.472,10.645V6.5h4.48v4.145H115.472z M115.472,29.873V12.941h4.48v16.932H115.472z"/>
	<path fill="#FFFFFF" d="M139.944,29.873h-4.479V21.23c0-1.826-0.096-3.01-0.287-3.549c-0.191-0.533-0.503-0.951-0.933-1.25
		c-0.431-0.296-0.949-0.445-1.555-0.445c-0.775,0-1.472,0.213-2.088,0.637c-0.617,0.426-1.04,0.988-1.268,1.689
		s-0.342,2-0.342,3.891v7.67h-4.48V12.941h4.161v2.486c1.477-1.913,3.337-2.869,5.581-2.869c0.988,0,1.892,0.179,2.71,0.535
		c0.818,0.355,1.438,0.811,1.857,1.362c0.42,0.554,0.712,1.181,0.877,1.882c0.165,0.7,0.246,1.704,0.246,3.013V29.873z"/>
	<path fill="#FFFFFF" d="M154.294,24.482l4.464,0.75c-0.575,1.637-1.48,2.885-2.718,3.738c-1.238,0.855-2.788,1.283-4.648,1.283
		c-2.944,0-5.124-0.961-6.537-2.887c-1.116-1.539-1.673-3.484-1.673-5.834c0-2.805,0.732-5.002,2.2-6.591
		c1.467-1.589,3.321-2.384,5.563-2.384c2.521,0,4.508,0.832,5.963,2.496c1.457,1.663,2.152,4.212,2.089,7.646h-11.223
		c0.03,1.328,0.392,2.361,1.083,3.1c0.69,0.738,1.552,1.107,2.582,1.107c0.703,0,1.292-0.191,1.77-0.574
		C153.687,25.951,154.049,25.332,154.294,24.482z M154.548,19.955c-0.032-1.295-0.366-2.281-1.004-2.957
		c-0.638-0.674-1.414-1.012-2.327-1.012c-0.979,0-1.786,0.355-2.424,1.066c-0.637,0.715-0.951,1.682-0.94,2.902H154.548z"/>
</g>
</svg>
